<svg width="280" height="105" viewBox="0 0 280 105" fill="none" xmlns="http://www.w3.org/2000/svg">
<g clip-path="url(#clip0_1_2)">
<path d="M43.7873 4.84339C49.9573 4.82992 56.1131 5.4341 62.1629 6.64691C74.0384 9.07428 81.8084 16.6399 84.0315 27.8466C85.4029 34.6152 85.6444 41.5639 84.7461 48.4112C83.9983 55.0284 81.6632 61.3673 77.9403 66.8885C74.9233 71.1766 70.5793 75.1351 66.3822 78.9577L63.7618 81.3622C59.8827 84.9806 55.9242 88.4742 52.2037 91.6498V86.2056C52.2037 84.6522 51.5874 83.1623 50.4901 82.0628C49.3928 80.9638 47.9042 80.3443 46.3508 80.3413C35.9834 80.3413 21.4986 76.7568 15.09 70.133C7.14998 61.8637 5.1196 49.7837 4.8814 41.1065C4.63186 32.7128 5.93629 17.5587 17.6534 10.356C23.427 6.80569 32.694 4.84339 43.7873 4.84339ZM43.7873 0C33.3292 0 22.4968 1.67874 15.124 6.21588C3.14595 13.6114 -0.347647 27.9828 0.0266664 41.2425C0.378294 52.6988 3.42952 65.0627 11.6191 73.479C19.4116 81.5553 35.439 85.1848 46.3622 85.1848C46.497 85.1818 46.6312 85.2058 46.7564 85.2559C46.8817 85.3061 46.9955 85.3813 47.0909 85.477C47.1864 85.5721 47.2614 85.6858 47.3116 85.8113C47.3618 85.9367 47.3861 86.0708 47.383 86.2056V97.7638C47.3751 98.0368 47.4232 98.308 47.5243 98.5617C47.6254 98.8149 47.7773 99.0448 47.9708 99.2373C48.1643 99.4298 48.3951 99.5802 48.6491 99.68C48.903 99.7797 49.1747 99.8264 49.4474 99.8171H49.6402C50.0553 99.7827 50.4505 99.6246 50.7745 99.3633C56.2758 94.6558 61.7884 89.8695 67.0968 84.9468C72.1898 80.2165 77.9631 75.362 81.9443 69.713C90.3496 57.7804 91.5973 40.9136 88.7501 26.9392C86.0732 13.4866 76.5112 4.72996 63.1155 1.985C56.7544 0.684868 50.2799 0.0199383 43.7873 0Z" fill="#2CC3D5"/>
<path d="M116.45 18.4435H133.702C136.65 18.4222 139.593 18.7112 142.481 19.3056C144.892 19.7869 147.198 20.6974 149.287 21.9938C151.139 23.1705 152.659 24.803 153.7 26.7352C154.809 28.9175 155.355 31.343 155.287 33.7904C155.349 37.0079 154.278 40.1446 152.26 42.6516C150.242 45.1587 147.407 46.8763 144.251 47.5039V47.8895C148.856 48.5928 152.437 50.1884 154.992 52.6762C157.548 55.1641 158.826 58.5859 158.826 62.9417C158.889 65.7253 158.295 68.4845 157.091 70.9952C155.962 73.276 154.3 75.2523 152.248 76.7573C149.992 78.3516 147.456 79.506 144.773 80.1599C141.621 80.9527 138.381 81.3336 135.131 81.2939H116.45V18.4435ZM132.329 45.292C137.706 45.292 141.559 44.3657 143.888 42.513C145.065 41.5424 145.995 40.3063 146.603 38.9065C147.211 37.5065 147.477 35.9826 147.381 34.4596C147.381 31.0568 146.156 28.5273 143.695 27.03C141.234 25.5328 137.57 24.7615 132.715 24.7615H124.469V45.292H132.329ZM133.963 75.0213C139.4 75.0213 143.585 74.0157 146.519 72.0043C149.453 69.993 150.924 66.8436 150.932 62.5561C150.932 58.6652 149.502 55.7501 146.621 53.9806C143.74 52.2111 139.521 51.247 133.963 51.247H124.469V75.0668L133.963 75.0213Z" fill="#F8FBFB"/>
<path d="M168.797 18.4435H176.657V74.5453H207.828V81.3511H168.797V18.4435Z" fill="#F8FBFB"/>
<path d="M197.052 36.558H226.588V81.3511H218.716V42.9894H197.052V36.558Z" fill="#F8FBFB"/>
<path d="M220.996 29.1964C219.518 29.26 218.073 28.7431 216.97 27.7558C216.438 27.2538 216.021 26.6412 215.751 25.9613C215.48 25.2813 215.363 24.5504 215.405 23.8198C215.373 23.0905 215.496 22.3627 215.766 21.6843C216.036 21.0059 216.446 20.3923 216.97 19.8839C218.083 18.925 219.504 18.3976 220.974 18.3976C222.443 18.3976 223.864 18.925 224.978 19.8839C225.513 20.386 225.934 20.9974 226.211 21.6766C226.49 22.3557 226.618 23.0866 226.588 23.8198C226.622 24.5467 226.494 25.2719 226.216 25.9442C225.937 26.6165 225.515 27.2195 224.978 27.7104C223.882 28.6795 222.458 29.1946 220.996 29.151" fill="#F8FBFB"/>
<path d="M237.5 18.4433H256.783C259.974 18.4135 263.157 18.7368 266.277 19.4074C268.908 19.9384 271.404 20.9955 273.616 22.5153C275.646 23.9671 277.264 25.9214 278.312 28.1867C279.509 30.9385 280.082 33.9212 279.991 36.9208C280.065 39.8858 279.491 42.8314 278.312 45.5526C277.247 47.9203 275.619 49.9918 273.57 51.587C271.384 53.256 268.89 54.4778 266.232 55.1827C263.153 56.0169 259.973 56.4215 256.783 56.3851H245.44V81.3394H237.5V18.4433ZM255.717 49.9083C261.29 49.9083 265.4 48.8685 268.046 46.789C270.693 44.7095 272.02 41.4352 272.028 36.9661C272.028 32.429 270.667 29.2794 267.944 27.5175C265.222 25.7556 261.146 24.8784 255.717 24.886H245.508V49.9083H255.717Z" fill="#F8FBFB"/>
</g>
<defs>
<clipPath id="clip0_1_2">
<rect width="280" height="105" fill="white"/>
</clipPath>
</defs>
</svg>
